<svg width="148" height="44" viewBox="0 0 148 44" fill="none" xmlns="http://www.w3.org/2000/svg">
<rect width="40.0559" height="6.9378" rx="3.4689" transform="matrix(0.501729 -0.865025 0.86702 0.498273 0 34.6493)" fill="white"/>
<rect width="32.2224" height="6.9378" rx="3.4689" transform="matrix(0.501729 -0.865025 0.86702 0.498273 7.05963 40.5431)" fill="white"/>
<rect width="22.0695" height="4.40887" rx="2.20443" transform="matrix(0.501729 -0.865025 0.86702 0.498273 18.1046 41.7589)" fill="white"/>
<path d="M48.304 33C47.984 33 47.752 32.928 47.608 32.784C47.48 32.64 47.416 32.424 47.416 32.136V17.568C47.416 17.264 47.48 17.04 47.608 16.896C47.752 16.752 47.992 16.68 48.328 16.68H49.624C49.88 16.68 50.072 16.712 50.2 16.776C50.344 16.84 50.456 16.968 50.536 17.16L55.384 28.32L60.232 17.16C60.312 16.968 60.416 16.84 60.544 16.776C60.688 16.712 60.888 16.68 61.144 16.68H62.44C62.776 16.68 63.008 16.752 63.136 16.896C63.28 17.04 63.352 17.264 63.352 17.568V32.136C63.352 32.424 63.28 32.64 63.136 32.784C63.008 32.928 62.784 33 62.464 33H61.408C61.088 33 60.856 32.928 60.712 32.784C60.568 32.64 60.496 32.424 60.496 32.136V21.792L56.392 30.936C56.264 31.192 56.136 31.376 56.008 31.488C55.88 31.6 55.672 31.656 55.384 31.656C55.096 31.656 54.88 31.6 54.736 31.488C54.608 31.376 54.488 31.192 54.376 30.936L50.272 21.792V32.136C50.272 32.424 50.2 32.64 50.056 32.784C49.928 32.928 49.696 33 49.36 33H48.304ZM70.8454 33.36C69.2774 33.36 68.0294 32.888 67.1014 31.944C66.1734 30.984 65.7094 29.64 65.7094 27.912C65.7094 26.568 66.0054 25.384 66.5974 24.36C67.1894 23.32 68.0294 22.52 69.1174 21.96C70.2214 21.4 71.5014 21.12 72.9574 21.12C74.9894 21.12 76.7094 21.6 78.1174 22.56V32.352C78.1174 32.592 78.0614 32.76 77.9494 32.856C77.8534 32.952 77.6774 33 77.4214 33H76.1014C75.9254 33 75.7894 32.968 75.6934 32.904C75.6134 32.824 75.5574 32.704 75.5254 32.544L75.3334 31.608C74.8374 32.216 74.2214 32.664 73.4854 32.952C72.7654 33.224 71.8854 33.36 70.8454 33.36ZM71.9974 31.176C72.8454 31.176 73.5894 30.928 74.2294 30.432C74.8854 29.936 75.2134 29.28 75.2134 28.464V23.784C74.8774 23.608 74.5334 23.488 74.1814 23.424C73.8454 23.344 73.4294 23.304 72.9334 23.304C71.6694 23.304 70.6534 23.704 69.8854 24.504C69.1174 25.304 68.7334 26.408 68.7334 27.816C68.7334 28.968 68.9974 29.816 69.5254 30.36C70.0694 30.904 70.8934 31.176 71.9974 31.176ZM81.8671 33C81.5471 33 81.3151 32.928 81.1711 32.784C81.0271 32.64 80.9551 32.424 80.9551 32.136V22.128C80.9551 21.888 80.9951 21.72 81.0751 21.624C81.1551 21.528 81.3231 21.48 81.5791 21.48H82.9471C83.2991 21.48 83.4831 21.64 83.4991 21.96L83.5471 22.92C84.6351 21.72 86.1951 21.12 88.2271 21.12C89.5231 21.12 90.5631 21.472 91.3471 22.176C92.1471 22.864 92.5471 23.904 92.5471 25.296V32.136C92.5471 32.424 92.4751 32.64 92.3311 32.784C92.2031 32.928 91.9791 33 91.6591 33H90.3871C90.0671 33 89.8351 32.928 89.6911 32.784C89.5471 32.64 89.4751 32.424 89.4751 32.136V25.488C89.4751 24.704 89.2911 24.152 88.9231 23.832C88.5711 23.496 87.9951 23.328 87.1951 23.328C86.3471 23.328 85.6031 23.56 84.9631 24.024C84.3391 24.472 84.0271 25.056 84.0271 25.776V32.136C84.0271 32.424 83.9551 32.64 83.8111 32.784C83.6831 32.928 83.4511 33 83.1151 33H81.8671ZM99.5564 33.36C97.9884 33.36 96.7404 32.888 95.8124 31.944C94.8844 30.984 94.4204 29.64 94.4204 27.912C94.4204 26.568 94.7164 25.384 95.3084 24.36C95.9004 23.32 96.7404 22.52 97.8284 21.96C98.9324 21.4 100.212 21.12 101.668 21.12C103.7 21.12 105.42 21.6 106.828 22.56V32.352C106.828 32.592 106.772 32.76 106.66 32.856C106.564 32.952 106.388 33 106.132 33H104.812C104.636 33 104.5 32.968 104.404 32.904C104.324 32.824 104.268 32.704 104.236 32.544L104.044 31.608C103.548 32.216 102.932 32.664 102.196 32.952C101.476 33.224 100.596 33.36 99.5564 33.36ZM100.708 31.176C101.556 31.176 102.3 30.928 102.94 30.432C103.596 29.936 103.924 29.28 103.924 28.464V23.784C103.588 23.608 103.244 23.488 102.892 23.424C102.556 23.344 102.14 23.304 101.644 23.304C100.38 23.304 99.3644 23.704 98.5964 24.504C97.8284 25.304 97.4444 26.408 97.4444 27.816C97.4444 28.968 97.7084 29.816 98.2364 30.36C98.7804 30.904 99.6044 31.176 100.708 31.176ZM115.786 37.08C114.858 37.08 113.954 36.992 113.074 36.816C112.194 36.64 111.522 36.408 111.058 36.12C110.802 35.976 110.738 35.8 110.866 35.592L111.562 34.416C111.658 34.256 111.754 34.176 111.85 34.176C111.914 34.176 111.994 34.2 112.09 34.248C112.97 34.696 114.114 34.92 115.522 34.92C116.594 34.92 117.378 34.664 117.874 34.152C118.37 33.64 118.618 32.776 118.618 31.56C118.17 32.04 117.642 32.4 117.034 32.64C116.442 32.864 115.722 32.976 114.874 32.976C113.082 32.976 111.682 32.488 110.674 31.512C109.682 30.536 109.186 29.16 109.186 27.384C109.186 25.368 109.778 23.824 110.962 22.752C112.162 21.664 113.89 21.12 116.146 21.12C117.186 21.12 118.202 21.264 119.194 21.552C120.202 21.84 121.018 22.2 121.642 22.632V30.864C121.642 32.8 121.17 34.32 120.226 35.424C119.282 36.528 117.802 37.08 115.786 37.08ZM115.594 30.72C116.49 30.72 117.218 30.488 117.778 30.024C118.338 29.544 118.618 28.888 118.618 28.056V23.784C118.314 23.64 117.93 23.528 117.466 23.448C117.002 23.368 116.514 23.328 116.002 23.328C113.474 23.328 112.21 24.616 112.21 27.192C112.21 28.376 112.49 29.264 113.05 29.856C113.61 30.432 114.458 30.72 115.594 30.72ZM130.695 33.36C129.447 33.36 128.319 33.152 127.311 32.736C126.303 32.304 125.495 31.648 124.887 30.768C124.295 29.872 123.999 28.76 123.999 27.432C123.999 25.368 124.551 23.8 125.655 22.728C126.759 21.656 128.327 21.12 130.359 21.12C132.375 21.12 133.895 21.64 134.919 22.68C135.959 23.72 136.479 25.224 136.479 27.192C136.479 27.752 136.223 28.032 135.711 28.032H126.903C126.903 29.088 127.271 29.904 128.007 30.48C128.743 31.04 129.767 31.32 131.079 31.32C132.343 31.32 133.479 31.032 134.487 30.456C134.599 30.392 134.687 30.36 134.751 30.36C134.863 30.36 134.951 30.432 135.015 30.576L135.591 31.608C135.639 31.704 135.663 31.792 135.663 31.872C135.663 31.984 135.591 32.088 135.447 32.184C134.791 32.584 134.079 32.88 133.311 33.072C132.559 33.264 131.687 33.36 130.695 33.36ZM133.695 26.256C133.695 25.264 133.415 24.488 132.855 23.928C132.311 23.368 131.487 23.088 130.383 23.088C129.263 23.088 128.399 23.376 127.791 23.952C127.199 24.528 126.903 25.296 126.903 26.256H133.695ZM139.734 33C139.414 33 139.182 32.928 139.038 32.784C138.894 32.64 138.822 32.424 138.822 32.136V22.128C138.822 21.888 138.862 21.72 138.942 21.624C139.022 21.528 139.19 21.48 139.446 21.48H140.814C140.99 21.48 141.118 21.52 141.198 21.6C141.278 21.664 141.326 21.784 141.342 21.96L141.414 22.824C142.358 21.688 143.598 21.12 145.134 21.12C145.838 21.12 146.374 21.24 146.742 21.48C146.838 21.544 146.894 21.616 146.91 21.696C146.942 21.76 146.942 21.84 146.91 21.936L146.478 23.376C146.43 23.536 146.342 23.616 146.214 23.616L146.022 23.568C145.638 23.392 145.198 23.304 144.702 23.304C143.886 23.304 143.214 23.536 142.686 24C142.158 24.448 141.894 25.064 141.894 25.848V32.136C141.894 32.424 141.822 32.64 141.678 32.784C141.55 32.928 141.318 33 140.982 33H139.734Z" fill="white"/>
</svg>
